<svg width="199" height="203" viewBox="0 0 199 203" fill="none" xmlns="http://www.w3.org/2000/svg">
<path d="M5.88824 131.156C5.7204 130.619 5.16094 130.317 4.62386 130.474C4.08679 130.642 3.78468 131.201 3.94133 131.738C5.01548 135.308 6.3134 138.866 7.80169 142.29C7.96952 142.67 8.33877 142.894 8.73039 142.894C8.86466 142.894 8.99892 142.86 9.1332 142.804C9.64791 142.58 9.88287 141.987 9.65908 141.473C8.21568 138.127 6.95119 134.648 5.88824 131.156Z" fill="#74CA7C"/>
<path d="M14.6161 151.299C14.3364 150.807 13.7098 150.65 13.2287 150.93C12.7363 151.209 12.5797 151.836 12.8594 152.317C14.728 155.551 16.798 158.706 19.0245 161.705C19.2259 161.973 19.528 162.107 19.8413 162.107C20.0539 162.107 20.2665 162.04 20.4455 161.906C20.8931 161.57 20.9938 160.944 20.6581 160.485C18.4762 157.565 16.4399 154.465 14.6161 151.299Z" fill="#74CA7C"/>
<path d="M2.02707 109.542C1.99351 108.982 1.51237 108.557 0.952924 108.591C0.393478 108.624 -0.0317121 109.105 0.00185867 109.665C0.225637 113.391 0.684388 117.15 1.34455 120.809C1.43406 121.301 1.85925 121.648 2.34038 121.648C2.39633 121.648 2.46346 121.637 2.51941 121.637C3.06768 121.536 3.43691 121.01 3.3474 120.462C2.68724 116.87 2.25087 113.189 2.02707 109.542Z" fill="#74CA7C"/>
<path d="M119.233 196.714C115.686 197.542 112.027 198.169 108.39 198.571C107.831 198.639 107.428 199.142 107.495 199.69C107.551 200.205 107.988 200.597 108.502 200.597C108.536 200.597 108.581 200.597 108.614 200.585C112.329 200.16 116.055 199.522 119.68 198.683C120.228 198.549 120.564 198.012 120.441 197.464C120.329 196.938 119.792 196.591 119.233 196.714Z" fill="#74CA7C"/>
<path d="M139.911 189.318C136.632 190.941 133.231 192.395 129.796 193.626C129.27 193.816 128.99 194.387 129.181 194.924C129.326 195.338 129.718 195.595 130.132 195.595C130.244 195.595 130.355 195.573 130.479 195.539C133.992 194.275 137.472 192.809 140.817 191.142C141.321 190.896 141.522 190.28 141.276 189.777C141.019 189.273 140.414 189.061 139.911 189.318Z" fill="#74CA7C"/>
<path d="M157.59 29.0463C160.432 31.34 163.173 33.8353 165.736 36.431C165.937 36.6324 166.194 36.7331 166.463 36.7331C166.72 36.7331 166.978 36.6324 167.168 36.4422C167.571 36.0506 167.571 35.4016 167.179 35.01C164.561 32.347 161.764 29.8071 158.855 27.4686C158.418 27.1217 157.78 27.1777 157.434 27.614C157.087 28.0504 157.153 28.6882 157.59 29.0463Z" fill="#74CA7C"/>
<path d="M188.448 73.6679C188.594 74.093 188.985 74.3728 189.41 74.3728C189.522 74.3728 189.623 74.3616 189.724 74.328C190.25 74.1602 190.552 73.5783 190.373 73.0412C189.209 69.4943 187.822 65.9811 186.266 62.5908C186.031 62.0873 185.427 61.8635 184.924 62.0984C184.42 62.3334 184.196 62.9376 184.431 63.4411C185.953 66.7529 187.307 70.1993 188.448 73.6679Z" fill="#74CA7C"/>
<path d="M179.253 53.7288C179.443 54.0421 179.779 54.2211 180.115 54.2211C180.294 54.2211 180.484 54.1764 180.641 54.0757C181.122 53.7848 181.267 53.1582 180.976 52.677C179.041 49.4993 176.892 46.3888 174.587 43.4459C174.24 42.9984 173.603 42.92 173.166 43.2669C172.719 43.6137 172.64 44.2515 172.987 44.6879C175.236 47.5858 177.34 50.6183 179.253 53.7288Z" fill="#74CA7C"/>
<path d="M192.836 95.1738C192.881 95.6997 193.329 96.1025 193.843 96.1025C193.877 96.1025 193.899 96.1025 193.933 96.0913C194.492 96.0465 194.906 95.5542 194.862 94.9948C194.537 91.2688 194 87.5316 193.262 83.8841C193.15 83.3358 192.613 82.9777 192.064 83.1008C191.516 83.2127 191.158 83.7498 191.281 84.298C191.997 87.8674 192.523 91.526 192.836 95.1738Z" fill="#74CA7C"/>
<path d="M96.4406 7.8439C100.088 7.79914 103.803 7.97817 107.428 8.3474C107.462 8.35859 107.495 8.35859 107.54 8.35859C108.055 8.35859 108.491 7.96697 108.547 7.45227C108.603 6.89282 108.2 6.40049 107.641 6.34455C103.937 5.96413 100.166 5.79627 96.4291 5.84104C95.8697 5.85223 95.4221 6.31098 95.4221 6.87045C95.4221 7.40753 95.9035 7.8439 96.4406 7.8439Z" fill="#74CA7C"/>
<path d="M139.037 17.2965C142.327 18.8853 145.56 20.6868 148.66 22.6337C148.828 22.7456 149.018 22.7904 149.208 22.7904C149.544 22.7904 149.88 22.6225 150.07 22.3204C150.372 21.8505 150.226 21.2127 149.756 20.9218C146.601 18.9189 143.3 17.0841 139.944 15.4617C139.44 15.2155 138.836 15.4281 138.59 15.9316C138.321 16.4351 138.534 17.0503 139.037 17.2965Z" fill="#74CA7C"/>
<path d="M118.282 10.0924C121.851 10.8757 125.409 11.8939 128.866 13.0912C128.978 13.1247 129.09 13.1471 129.191 13.1471C129.616 13.1471 130.008 12.8786 130.153 12.4646C130.343 11.9387 130.053 11.3569 129.527 11.1778C125.991 9.95824 122.354 8.92883 118.718 8.12325C118.17 8.00017 117.633 8.34704 117.51 8.8953C117.387 9.43237 117.733 9.96936 118.282 10.0924Z" fill="#74CA7C"/>
<path d="M191.94 106.374C191.548 105.982 190.899 105.982 190.508 106.385C190.116 106.788 190.116 107.425 190.519 107.817L195.352 112.617C196.359 113.624 196.919 114.956 196.93 116.388C196.941 117.809 196.382 119.152 195.386 120.17L176.879 138.811L170.882 132.858L172.09 131.65C173.735 129.994 174.474 127.722 174.261 125.552C174.172 124.254 173.735 122.978 172.93 121.882C171.665 120.159 169.718 119.085 167.603 118.928C165.466 118.771 163.385 119.543 161.886 121.054L160.465 122.497L154.423 116.5L161.035 109.831C161.338 109.529 161.405 109.082 161.248 108.712C161.203 108.533 161.136 108.354 160.991 108.209L158.887 106.128C157.824 105.065 157.265 103.577 157.388 102.055C157.444 101.294 157.668 100.555 158.026 99.8953C158.384 99.2687 158.876 98.7093 159.491 98.2617C161.55 96.7512 164.526 97.0309 166.429 98.9107L168.443 100.914C168.633 101.104 168.89 101.182 169.159 101.204C169.427 101.204 169.685 101.093 169.875 100.902L176.689 94.0435L185.674 102.961C186.065 103.353 186.714 103.353 187.106 102.95C187.498 102.547 187.498 101.909 187.095 101.518L177.394 91.884C177.372 91.8616 177.349 91.8505 177.327 91.8393C177.316 91.8169 177.304 91.7945 177.282 91.7721L167.514 82.0713C167.76 81.9146 167.984 81.7356 168.185 81.523C168.957 80.751 169.382 79.7215 169.382 78.6474L169.461 63.2513C169.505 58.3056 167.245 53.5504 163.407 50.4285L163.463 49.5446L163.508 44.9346C163.519 44.3751 163.061 43.9164 162.501 43.9052H162.49C161.93 43.9052 161.483 44.3528 161.472 44.9122L161.438 49.4549L161.349 50.8199C161.326 51.1556 161.483 51.4913 161.751 51.6927C165.354 54.4228 167.48 58.7417 167.447 63.2285L167.368 78.6358C167.368 79.1841 167.156 79.6988 166.764 80.0792C166.373 80.4708 165.869 80.661 165.321 80.6834C164.191 80.6834 163.273 79.7547 163.273 78.6359V71.8776L163.307 68.6328L163.329 66.753C163.34 66.1936 162.882 65.7348 162.322 65.7236C161.774 65.7348 161.304 66.1712 161.293 66.7306L161.282 67.3684C161.259 67.4579 161.237 67.5474 161.237 67.6369V71.8665L161.058 89.881C161.047 90.4293 160.834 90.9328 160.442 91.3244C160.051 91.7161 159.547 91.9287 158.988 91.9063C157.914 91.8951 157.041 91.0559 156.963 90.0041L157.108 74.899C157.119 74.3395 156.66 73.8808 156.101 73.8696H156.09C155.542 73.8696 155.083 74.3171 155.072 74.8766L154.915 89.8253C154.915 89.9036 154.915 89.9932 154.926 90.0715L154.893 93.0702C154.881 94.1891 153.964 95.1066 152.845 95.1066H152.823C151.693 95.0954 150.786 94.1667 150.786 93.0366L150.976 74.7984V74.7872C150.988 74.2278 150.529 73.769 149.969 73.7578C149.432 73.769 148.951 74.2054 148.94 74.7648L148.783 90.2057C148.772 91.3246 147.855 92.2421 146.736 92.2421H146.713C145.583 92.2309 144.677 91.3022 144.677 90.1721L144.867 71.1508V71.1396C144.878 70.5801 144.42 70.1214 143.86 70.1102H143.849C143.29 70.1102 142.842 70.5577 142.831 71.1172L142.685 85.7749C142.674 86.3232 142.462 86.8267 142.07 87.2183C141.678 87.6099 141.164 87.8225 140.615 87.8001C139.485 87.7889 138.579 86.8602 138.579 85.7301L138.792 62.9939C138.836 58.5071 140.929 54.3896 144.554 51.6707C144.789 51.4917 144.945 51.2231 144.957 50.921L145.046 49.4217L145.091 44.8005C145.102 44.2411 144.643 43.7823 144.084 43.7711H144.073C143.513 43.7711 143.066 44.2187 143.055 44.7781L143.021 49.0077V49.3434L142.965 50.3392C139.071 53.4273 136.811 58.015 136.766 62.983L136.576 83.7946L128.218 92.2087L109.073 111.51C107.686 112.897 106.936 114.744 106.958 116.713C106.97 118.671 107.742 120.517 109.14 121.905L114.142 126.873C114.545 127.264 115.182 127.264 115.574 126.861C115.966 126.459 115.966 125.821 115.563 125.429L110.561 120.461C109.554 119.454 108.984 118.123 108.984 116.69C108.972 115.269 109.521 113.938 110.517 112.931L128.945 94.357L134.942 100.31L133.723 101.529C132.559 102.693 131.854 104.181 131.619 105.714C131.261 107.638 131.653 109.652 132.828 111.264C134.081 112.964 136.005 114.038 138.109 114.195C140.257 114.352 142.35 113.568 143.871 112.047L145.304 110.603L151.402 116.657L144.8 123.314C144.61 123.504 144.509 123.762 144.509 124.03C144.509 124.299 144.621 124.556 144.811 124.746L146.971 126.883C148.056 127.969 148.627 129.479 148.515 131.012C148.403 132.556 147.653 133.91 146.4 134.839C144.364 136.338 141.376 136.047 139.485 134.167L137.471 132.164C137.068 131.773 136.431 131.773 136.039 132.176L129.269 138.99L120.229 130.016C119.837 129.625 119.188 129.625 118.797 130.027C118.405 130.43 118.405 131.068 118.808 131.46L128.565 141.149L128.576 141.16C128.576 141.16 128.576 141.172 128.587 141.172L139.071 151.589C139.06 151.6 139.038 151.622 139.026 151.633C138.254 152.405 137.829 153.435 137.829 154.509L137.796 161.994L137.751 169.905C137.706 174.851 139.966 179.606 143.804 182.728L143.748 183.612L143.704 188.222C143.692 188.781 144.151 189.24 144.711 189.251C145.259 189.251 145.729 188.804 145.74 188.244L145.774 183.701L145.863 182.336C145.885 182.001 145.729 181.665 145.46 181.464C141.857 178.734 139.731 174.415 139.765 169.928L139.843 154.521C139.843 153.972 140.056 153.458 140.447 153.077C140.839 152.686 141.354 152.473 141.891 152.473C142.439 152.473 142.954 152.686 143.334 153.077C143.726 153.469 143.939 153.983 143.939 154.521V161.29L143.905 164.579L143.883 166.414C143.871 166.974 144.33 167.433 144.89 167.444H144.901C145.46 167.444 145.908 166.996 145.919 166.437L145.93 165.799C145.953 165.71 145.975 165.62 145.975 165.531V161.301L146.143 143.309C146.154 142.19 147.071 141.273 148.19 141.273H148.213C149.287 141.284 150.16 142.123 150.238 143.175L150.092 158.28C150.081 158.839 150.54 159.298 151.099 159.309H151.111C151.659 159.309 152.118 158.862 152.129 158.302L152.286 143.354C152.286 143.275 152.286 143.186 152.274 143.107L152.308 140.109C152.319 138.99 153.237 138.072 154.355 138.072H154.378C155.508 138.083 156.414 139.012 156.414 140.142L156.224 158.38V158.392C156.213 158.951 156.672 159.41 157.231 159.421C157.802 159.432 158.249 158.973 158.26 158.414L158.417 142.973C158.428 141.854 159.346 140.937 160.465 140.937H160.487C161.617 140.948 162.524 141.877 162.524 143.007L162.333 162.028V162.039C162.322 162.599 162.781 163.057 163.34 163.069H163.352C163.911 163.069 164.359 162.621 164.37 162.062L164.515 147.404C164.526 146.274 165.477 145.345 166.585 145.368C167.715 145.379 168.622 146.307 168.622 147.438L168.409 170.174C168.364 174.661 166.272 178.778 162.647 181.497C162.412 181.676 162.255 181.945 162.244 182.247L162.154 183.746L162.11 188.367C162.098 188.927 162.557 189.385 163.117 189.397H163.128C163.687 189.397 164.135 188.949 164.146 188.39L164.191 183.824L164.247 182.828C168.141 179.74 170.401 175.153 170.446 170.185L170.647 147.974L177.64 140.925L196.863 121.568C198.25 120.17 199.011 118.312 199 116.354C198.989 114.385 198.217 112.539 196.818 111.151L191.94 106.374ZM160.466 138.91C159.705 138.91 158.966 139.112 158.351 139.481C158.038 137.556 156.371 136.068 154.368 136.046C152.197 136.046 150.429 137.691 150.261 139.817C149.657 139.459 148.963 139.246 148.214 139.246H148.18C145.942 139.246 144.119 141.047 144.096 143.285L144.029 150.816V151.062C143.906 150.983 143.783 150.928 143.649 150.872C143.1 150.614 142.507 150.48 141.892 150.458C141.556 150.458 141.221 150.502 140.907 150.581L130.725 140.466L136.678 134.468L137.931 135.71C140.046 137.814 143.19 138.441 145.819 137.456C146.446 137.232 147.05 136.93 147.598 136.516C149.31 135.252 150.384 133.327 150.541 131.212C150.697 129.075 149.925 126.983 148.404 125.495L146.983 124.096L153.014 118.02L159.705 124.667C160.096 125.058 160.745 125.058 161.137 124.655L163.274 122.496C164.359 121.411 165.859 120.851 167.403 120.963C168.958 121.075 170.312 121.836 171.24 123.1C172.74 125.148 172.46 128.124 170.569 130.026L168.566 132.04C168.376 132.23 168.275 132.488 168.275 132.756C168.275 133.025 168.387 133.282 168.577 133.472L175.414 140.264L170.121 145.59C169.45 144.292 168.096 143.397 166.53 143.375C165.746 143.364 165.075 143.565 164.471 143.912L164.482 143.05C164.527 140.779 162.715 138.933 160.466 138.91ZM140.605 89.8345C141.321 89.8345 142.037 89.6555 142.664 89.2974L142.653 90.159C142.63 92.408 144.443 94.2542 146.692 94.2766C147.453 94.2766 148.191 94.0752 148.807 93.7059C149.12 95.6305 150.787 97.1186 152.79 97.1409H152.824C154.961 97.1409 156.729 95.4849 156.897 93.3702C157.501 93.7283 158.194 93.9409 158.944 93.9409H158.978C160.052 93.9409 161.059 93.5269 161.831 92.766C162.614 92.0052 163.051 90.9869 163.051 89.8904L163.118 82.4607V82.1139C163.308 82.2258 163.509 82.3265 163.699 82.4048C164.181 82.6062 164.706 82.7181 165.244 82.7181H165.288C165.333 82.7964 165.367 82.8748 165.434 82.9419L175.056 92.4973L169.07 98.5282L167.828 97.2863C165.244 94.7128 161.137 94.3772 158.273 96.4807C156.528 97.7674 155.442 99.7366 155.285 101.874C155.129 103.988 155.89 106.058 157.389 107.536L158.777 108.901L152.656 115.054L145.988 108.442C145.797 108.252 145.54 108.128 145.271 108.151C145.003 108.151 144.746 108.263 144.555 108.453L142.407 110.612C141.311 111.72 139.789 112.28 138.245 112.168C136.701 112.056 135.358 111.306 134.441 110.053C132.941 108.017 133.243 105.029 135.134 103.116L137.148 101.09C137.339 100.9 137.439 100.643 137.439 100.374C137.439 100.106 137.327 99.8485 137.137 99.6583L130.323 92.9L136.6 86.5783C137.036 88.4356 138.658 89.8233 140.605 89.8345Z" fill="#74CA7C"/>
<path d="M43.0481 97.0987C43.0481 97.0316 43.0369 96.9532 43.0369 96.8749C43.5292 97.0875 44.0215 97.2777 44.5362 97.4456V100.388C44.5362 101.787 45.6775 102.928 47.0762 102.928H52.7938C54.1924 102.928 55.3337 101.787 55.3337 100.388V97.4456C56.1841 97.1658 57.0121 96.819 57.8065 96.4162L59.8877 98.4973C60.8723 99.482 62.4947 99.482 63.4793 98.4973L67.5634 94.4133C68.548 93.4286 68.548 91.8062 67.5634 90.8216L65.4822 88.7404C65.8851 87.946 66.2319 87.118 66.5117 86.2676H69.4542C70.8529 86.2676 71.9942 85.1263 71.9942 83.7277V78.8829C71.9942 77.4842 70.8529 76.343 69.4542 76.343H66.5117C66.2319 75.4926 65.8851 74.6646 65.4822 73.8702L67.5634 71.789C68.548 70.8044 68.548 69.1819 67.5634 68.1973L63.4793 64.1133C62.4947 63.1286 60.8723 63.1174 59.8877 64.1133L57.8065 66.1944C57.0121 65.7916 56.1841 65.4448 55.3337 65.165V62.2224C55.3337 60.8238 54.1924 59.6825 52.7938 59.6825H47.0762C45.6775 59.6825 44.5362 60.8238 44.5362 62.2224V65.165C43.6859 65.4447 42.8579 65.7916 42.0635 66.1944L39.9823 64.1133C39.669 63.8 39.2998 63.5986 38.897 63.4867C38.0354 63.2405 37.062 63.4419 36.3794 64.1133L34.6675 65.8252L13.6433 65.8028C7.94805 65.8028 3.30457 70.4463 3.30457 76.1416V96.6513C3.30457 100.601 6.51584 103.801 10.4544 103.801H36.346C40.0497 103.812 43.0481 100.802 43.0481 97.0987ZM10.4541 101.787C7.62324 101.787 5.32937 99.4931 5.32937 96.6622V76.1525C5.32937 71.5648 9.05538 67.8503 13.6316 67.8503H32.6417L32.2949 68.1971C31.3102 69.1818 31.3102 70.8042 32.2949 71.7888L34.376 73.87C33.9732 74.6644 33.6264 75.4924 33.3466 76.3428H30.404C29.0054 76.3428 27.8641 77.4841 27.8641 78.8827V83.7275C27.8641 85.1262 29.0054 86.2675 30.404 86.2675H33.3466C33.6264 87.1178 33.9732 87.9458 34.376 88.7402L32.7312 90.385H15.7239C15.1644 90.385 14.7056 90.8326 14.7056 91.4032C14.7056 91.9739 15.1532 92.4214 15.7239 92.4214H36.3453C38.0572 92.4214 39.5789 93.3389 40.3958 94.7711C40.5636 95.0621 40.7091 95.353 40.8098 95.6886C40.8098 95.6998 40.8098 95.711 40.821 95.7222C40.821 95.7334 40.8322 95.7446 40.8322 95.7558C40.9664 96.1921 41.0336 96.6509 41.0336 97.1208C41.0336 99.7055 38.93 101.809 36.3454 101.809L10.4541 101.787ZM37.8226 65.535C38.024 65.3336 38.3484 65.3336 38.5499 65.535L40.7317 67.7169C41.3024 68.2875 42.1527 68.4106 42.8688 68.0414C43.6297 67.6386 44.4465 67.3141 45.2745 67.0455C46.0353 66.7994 46.5612 66.1056 46.5612 65.3V62.2119C46.5612 61.921 46.785 61.6972 47.0759 61.6972H52.7936C53.0845 61.6972 53.3083 61.921 53.3083 62.2119V65.3C53.3083 66.0944 53.823 66.7994 54.595 67.0455C55.423 67.3141 56.2286 67.6385 57.0007 68.0414C57.7168 68.4106 58.5783 68.2875 59.1378 67.7169L61.3196 65.535C61.521 65.3336 61.8455 65.3336 62.0469 65.535L66.131 69.6191C66.3324 69.8205 66.3324 70.1449 66.131 70.3464L63.9491 72.5282C63.3785 73.0989 63.2554 73.9492 63.6246 74.6653C64.0274 75.4262 64.3519 76.243 64.6205 77.071C64.8666 77.843 65.5603 78.3577 66.366 78.3577H69.4541C69.745 78.3577 69.9688 78.5815 69.9688 78.8724V83.7173C69.9688 84.0082 69.745 84.232 69.4541 84.232L66.3883 84.2432C65.5939 84.2432 64.889 84.7579 64.6428 85.5299C64.3743 86.3579 64.0386 87.1635 63.647 87.9356C63.2777 88.6517 63.4008 89.5132 63.9715 90.0727L66.1533 92.2545C66.3547 92.4559 66.3547 92.7804 66.1533 92.9818L62.0693 97.0659C61.8679 97.2673 61.5434 97.2673 61.342 97.0659L59.1601 94.884C58.5895 94.3134 57.7391 94.1903 57.023 94.5595C56.2621 94.9623 55.4453 95.2868 54.6174 95.5554C53.8565 95.8015 53.3306 96.4952 53.3306 97.3009V100.389C53.3306 100.68 53.1068 100.904 52.8159 100.904H47.0983C46.8074 100.904 46.5836 100.68 46.5836 100.389V97.3009C46.5836 96.5064 46.0689 95.8015 45.2968 95.5554C44.4688 95.2868 43.6632 94.9624 42.8912 94.5595C42.7681 94.4924 42.645 94.4477 42.5108 94.4141C41.459 91.9749 39.0646 90.3747 36.3569 90.3747H35.6296L35.9429 90.0614C36.5135 89.4907 36.6366 88.6404 36.2673 87.9243C35.8645 87.1634 35.54 86.3466 35.2715 85.5187C35.0253 84.7466 34.3316 84.2319 33.526 84.2319H30.4379C30.147 84.2319 29.9232 84.0081 29.9232 83.7172V78.8724C29.9232 78.5814 30.147 78.3577 30.4379 78.3577H33.526C34.3316 78.3577 35.0253 77.8429 35.2715 77.0709C35.54 76.2429 35.8757 75.4373 36.2673 74.6653C36.6366 73.9492 36.5135 73.0876 35.9429 72.5282L33.761 70.3463C33.5596 70.1449 33.5596 69.8204 33.761 69.619L37.8226 65.535Z" fill="#74CA7C"/>
<path d="M52.177 55.2068L55.366 52.0852C55.4107 52.0516 55.4667 52.0516 55.5002 52.074C56.731 52.7006 58.029 53.2265 59.3494 53.6405C59.3942 53.6517 59.4389 53.6852 59.4389 53.7524V58.5749C59.4389 60.298 60.8376 61.6965 62.5606 61.6965H70.5497L80.4857 71.6325V93.7981C80.4857 97.3786 83.3948 100.288 86.9753 100.288L102.192 100.299C102.495 100.914 102.897 101.485 103.39 101.955L103.401 101.966C104.587 103.152 106.153 103.801 107.832 103.801C108.156 103.801 108.492 103.779 108.816 103.723C111.692 103.286 114.109 100.366 114.109 97.3337V65.937C114.109 61.9873 110.898 58.7872 106.959 58.7872H84.5698L78.6732 52.9017L81.0229 55.1954C82.2313 56.3815 84.1895 56.3815 85.3865 55.1954L88.6983 51.9618C90.8131 53.6513 93.4985 54.6808 96.4188 54.6808C103.266 54.6808 108.839 49.1086 108.839 42.261C108.839 38.5126 107.16 35.1447 104.508 32.8623C102.573 31.1952 100.122 30.1098 97.4256 29.8859V26.8202C97.4256 25.097 96.027 23.6985 94.304 23.6985H89.8172C89.7612 23.6985 89.7277 23.6538 89.7053 23.609C89.2913 22.3223 88.7654 21.0691 88.1276 19.883C88.1052 19.8382 88.0941 19.7823 88.1388 19.7375L91.2381 16.6941C91.8423 16.1011 92.178 15.3067 92.178 14.4563C92.178 13.6059 91.8423 12.8115 91.2381 12.2185L85.375 6.48969C84.1665 5.30365 82.2084 5.30365 81.0113 6.48969L77.8224 9.61131C77.7776 9.64488 77.7217 9.64488 77.6881 9.6225C76.4573 8.99591 75.1594 8.47004 73.8389 8.05602C73.7942 8.04483 73.7494 8.01126 73.7494 7.94413V3.12162C73.7494 1.39851 72.3508 0 70.6278 0H62.5605C60.8374 0 59.4389 1.39863 59.4389 3.12162V7.96647C59.4389 8.02242 59.3941 8.05599 59.3494 8.07836C58.029 8.48116 56.7311 9.01823 55.5002 9.64485C55.4554 9.66722 55.3995 9.67842 55.3659 9.63366L52.177 6.51204C50.9685 5.326 49.0104 5.326 47.8133 6.51204L41.9502 12.2408C41.346 12.8339 41.0103 13.6283 41.0103 14.4787C41.0103 15.329 41.346 16.1235 41.9502 16.7165L45.0495 19.7487C45.0942 19.7935 45.083 19.8494 45.0607 19.8942C44.4341 21.0914 43.897 22.3446 43.483 23.6202C43.4718 23.6649 43.4383 23.7097 43.3711 23.7097H38.8843C37.1612 23.7097 35.7627 25.1083 35.7627 26.8313V34.8875C35.7627 36.6106 37.1613 38.0091 38.8843 38.0091H43.3711C43.4271 38.0091 43.4606 38.0538 43.483 38.0986C43.897 39.3853 44.4229 40.6385 45.0607 41.8246C45.083 41.8694 45.0942 41.9253 45.0495 41.9701L41.9502 45.0023C41.346 45.5953 41.0103 46.3898 41.0103 47.2401C41.0103 48.0905 41.346 48.8849 41.9502 49.4779L46.616 54.0432L47.8133 55.2069C49.0105 56.3818 50.9688 56.3817 52.177 55.2068ZM43.3713 46.4569L46.4706 43.4247C47.1531 42.7533 47.3098 41.7351 46.8622 40.8847C46.2916 39.7994 45.7992 38.6469 45.4188 37.4721C45.1279 36.577 44.3111 35.9728 43.3824 35.9728H38.8956C38.2914 35.9728 37.7991 35.4804 37.7991 34.8762V26.8313C37.7991 26.2271 38.2914 25.7348 38.8956 25.7348H43.3824C44.3111 25.7348 45.1279 25.1305 45.4188 24.2354C45.7992 23.0717 46.2804 21.9193 46.8622 20.8228C47.3098 19.9724 47.1531 18.943 46.4706 18.2828L43.3713 15.2506C43.1587 15.038 43.0468 14.7583 43.0468 14.4673C43.0468 14.1764 43.1587 13.8967 43.3713 13.6841L49.2344 7.9553C49.6596 7.5413 50.3422 7.5413 50.7674 7.9553L53.9563 11.0769C54.6052 11.7147 55.6011 11.8602 56.4291 11.4462C57.5592 10.8755 58.7452 10.3832 59.9649 10.014C60.8712 9.73424 61.4866 8.90625 61.4866 7.97755V3.15505C61.4866 2.55083 61.9789 2.05853 62.5831 2.05853H70.6504C71.2546 2.05853 71.7469 2.55086 71.7469 3.15505V7.97755C71.7469 8.91742 72.3512 9.73423 73.2687 10.014C74.4883 10.3944 75.6743 10.8755 76.8045 11.4462C77.6325 11.8714 78.6283 11.7147 79.2773 11.0769L82.4662 7.9553C82.8914 7.5413 83.5739 7.5413 83.9991 7.9553L89.8623 13.6841C90.0748 13.8967 90.1867 14.1764 90.1867 14.4673C90.1867 14.7695 90.0748 15.038 89.8623 15.2506L86.763 18.2828C86.0804 18.9542 85.9238 19.9724 86.3713 20.8228C86.9532 21.9081 87.4343 23.0606 87.8147 24.2354C88.1056 25.1305 88.9225 25.7348 89.8512 25.7348H94.338C94.9422 25.7348 95.4345 26.2271 95.4345 26.8313V29.897C89.0566 30.4117 84.0216 35.7602 84.0216 42.2609C84.0216 45.4611 85.2412 48.3701 87.244 50.5743L83.988 53.7521C83.5629 54.166 82.8803 54.166 82.4551 53.7521L79.2662 50.6304C78.6172 49.9927 77.6214 49.8472 76.7934 50.2612C76.6256 50.3507 76.4577 50.4178 76.2899 50.4962L69.9682 44.1744C68.8381 43.0443 67.3387 42.4177 65.7386 42.4177H65.7274C64.1274 42.4177 62.6393 43.0443 61.4978 44.1633C60.3678 45.2933 59.7412 46.8039 59.7412 48.3928C59.7412 49.9929 60.3677 51.4809 61.4867 52.6112L68.5357 59.6491H62.572C61.9678 59.6491 61.4755 59.1567 61.4755 58.5525V53.73C61.4755 52.7902 60.8712 51.9734 59.9538 51.6936C58.7341 51.3132 57.5481 50.8321 56.4179 50.2614C56.1046 50.1048 55.769 50.0264 55.4333 50.0264C54.885 50.0264 54.3479 50.239 53.9452 50.6307L50.7562 53.7523C50.331 54.1663 49.6485 54.1663 49.2233 53.7523L43.3602 48.0123C43.1476 47.7997 43.0357 47.52 43.0357 47.2291C43.0357 46.9493 43.1475 46.6695 43.3713 46.4569ZM106.824 42.2611C106.824 47.9899 102.158 52.6558 96.4289 52.6558C90.7001 52.6558 86.0343 47.9899 86.0343 42.2611C86.0343 36.5323 90.7001 31.8665 96.4289 31.8665C102.158 31.8777 106.824 36.5323 106.824 42.2611ZM112.082 65.9483V97.345C112.082 99.3814 110.415 101.429 108.513 101.72C107.125 101.932 105.794 101.496 104.832 100.534H104.82V100.523C104.373 100.075 104.026 99.5379 103.813 98.9449C103.657 98.4974 103.567 98.0162 103.567 97.5239L103.578 77.35C103.578 76.7905 103.131 76.3317 102.56 76.3317C101.99 76.3317 101.542 76.7793 101.542 77.35V97.5351C101.542 97.7813 101.564 98.0274 101.587 98.2736H86.9737C84.5121 98.2736 82.5093 96.2707 82.5093 93.8091V71.2184C82.5093 70.9499 82.3974 70.6926 82.2072 70.5023L62.906 51.2011C62.1563 50.4515 61.7535 49.4668 61.7535 48.4151C61.7535 47.3521 62.1675 46.3563 62.9172 45.6178C63.6669 44.8681 64.6515 44.4653 65.7033 44.4653H65.7145C66.7662 44.4653 67.7621 44.8793 68.5117 45.629L83.4267 60.5328C83.6169 60.723 83.8742 60.8237 84.1428 60.8237H106.946C109.788 60.8237 112.082 63.1286 112.082 65.9483Z" fill="#74CA7C"/>
<path d="M22.7396 61.7061C29.5872 61.7061 35.1593 56.134 35.1593 49.2863C35.1593 42.4387 29.5872 36.8666 22.7396 36.8666C15.9031 36.8666 10.3198 42.4387 10.3198 49.2752C10.3198 56.134 15.8919 61.7061 22.7396 61.7061ZM33.123 49.2752C33.123 55.004 28.4572 59.6698 22.7284 59.6698C16.9996 59.6698 12.345 55.004 12.345 49.2752C12.345 43.5464 17.0108 38.8805 22.7396 38.8805C28.4684 38.8917 33.123 43.5464 33.123 49.2752Z" fill="#74CA7C"/>
<path d="M49.9284 89.9606C54.7062 89.9606 58.5886 86.0779 58.5886 81.3004C58.5886 76.5228 54.706 72.6401 49.9284 72.6401C45.1509 72.6401 41.2682 76.5228 41.2682 81.3004C41.2794 86.0782 45.1621 89.9606 49.9284 89.9606ZM56.5635 81.3004C56.5635 84.9479 53.5871 87.9355 49.9284 87.9355C46.2809 87.9355 43.2933 84.9591 43.2933 81.3004C43.2933 77.6528 46.2697 74.6653 49.9284 74.6653C53.5983 74.6764 56.5635 77.6528 56.5635 81.3004Z" fill="#74CA7C"/>
<path d="M48.4849 25.0847L53.8444 26.6624V35.6471C53.8444 37.2248 54.9074 38.6235 56.4179 39.0151C59.6404 39.8767 62.8964 40.3018 66.13 40.3018C69.3748 40.3018 72.6196 39.8767 75.842 39.0151C77.3525 38.6123 78.4155 37.2249 78.4155 35.6471V26.6624L83.7751 25.0847C84.4576 24.8833 84.9164 24.2791 84.9164 23.563C84.9164 22.8581 84.4576 22.2427 83.7751 22.0413L67.0811 17.1294C66.4545 16.9392 65.8055 16.9392 65.1789 17.1294L48.4849 22.0413C47.8024 22.2427 47.3436 22.8469 47.3436 23.563C47.3436 24.2791 47.8023 24.8945 48.4849 25.0847ZM66.5105 19.0761L81.7724 23.574L66.5105 28.072C66.2644 28.1391 66.007 28.1391 65.7609 28.072L50.4991 23.574L65.7609 19.0761C66.007 18.9977 66.2644 18.9977 66.5105 19.0761ZM75.3386 37.0679C69.2406 38.6904 63.0529 38.6904 56.9437 37.0679C56.3171 36.9001 55.8808 36.3183 55.8808 35.6581L55.8696 27.2551L65.1901 29.9964C65.5034 30.0859 65.8167 30.1307 66.1299 30.1307C66.4544 30.1307 66.7677 30.0859 67.0698 29.9964L76.3903 27.2551V35.6469C76.4015 36.3183 75.9652 36.9001 75.3386 37.0679Z" fill="#74CA7C"/>
<path d="M37.7318 137.725H77.7561C78.3156 137.725 78.7743 137.277 78.7743 136.706C78.7743 136.136 78.3268 135.688 77.7561 135.688H37.7318C37.1724 135.688 36.7136 136.136 36.7136 136.706C36.7136 137.277 37.1724 137.725 37.7318 137.725Z" fill="#74CA7C"/>
<path d="M77.5756 147.303C78.135 147.303 78.5938 146.856 78.5938 146.285C78.5938 145.714 78.1462 145.267 77.5756 145.267H38.3133C37.7538 145.267 37.295 145.714 37.295 146.285C37.295 146.856 37.7426 147.303 38.3133 147.303H77.5756Z" fill="#74CA7C"/>
<path d="M111.694 156.054C112.298 154.554 111.884 152.932 110.642 151.903C109.422 150.896 107.789 150.817 106.48 151.679L98.3675 156.994C95.4473 155.707 92.3477 155.058 89.1591 155.058H88.8682C91.464 151.175 92.8626 146.577 92.8626 141.877C92.8626 128.875 82.4344 118.291 69.6005 118.291L46.6294 118.279C43.4405 118.279 40.3412 118.928 37.4209 120.215L29.309 114.9C28.7047 114.497 28.0222 114.318 27.3509 114.318C26.5676 114.33 25.7844 114.587 25.1354 115.124C23.8935 116.153 23.4795 117.776 24.0837 119.275L27.6977 128.204C24.8668 132.221 23.3676 136.932 23.3676 141.855C23.3676 154.856 33.7957 165.441 46.6296 165.441H46.8982C44.3918 169.212 42.9261 173.743 42.9261 178.622C42.9261 191.624 53.3543 202.209 66.1882 202.209H89.1705C101.993 202.209 112.433 191.624 112.433 178.622C112.433 176.72 112.209 174.863 111.772 173.061C111.079 170.174 109.848 167.444 108.103 164.972L111.694 156.054ZM110.384 178.644C110.384 190.527 100.863 200.206 89.1475 200.206H66.1764C54.4728 200.206 44.9395 190.527 44.9395 178.644C44.9395 166.762 54.4613 157.083 66.1764 157.083H89.1587C92.2356 157.083 95.212 157.755 98.0206 159.075C98.3338 159.22 98.7143 159.198 99.0052 159.008L107.587 153.391C108.438 152.832 109.165 153.324 109.355 153.48C109.78 153.839 110.138 154.499 109.814 155.304L105.998 164.759C105.864 165.084 105.909 165.464 106.133 165.744C108.919 169.492 110.384 173.956 110.384 178.644ZM25.3919 141.877C25.3919 137.189 26.8689 132.724 29.655 128.954C29.8676 128.663 29.9124 128.294 29.7893 127.969L25.9739 118.514C25.6494 117.72 25.9963 117.048 26.4327 116.69C26.6341 116.523 27.3502 116.03 28.2006 116.601L36.7826 122.218C37.0735 122.408 37.4539 122.441 37.7672 122.285C40.5645 120.965 43.5519 120.293 46.6291 120.293L69.6114 120.316C81.315 120.316 90.8483 129.994 90.8483 141.877C90.8483 146.632 89.2707 151.287 86.3839 155.058H66.1875C59.0712 155.058 52.6936 158.314 48.4194 163.438H46.6291C34.9143 163.438 25.3919 153.771 25.3919 141.877Z" fill="#74CA7C"/>
<path d="M97.595 173.283H57.5707C57.0112 173.283 56.5525 173.731 56.5525 174.301C56.5525 174.872 57 175.32 57.5707 175.32H97.595C98.1544 175.32 98.6132 174.872 98.6132 174.301C98.6132 173.742 98.1544 173.283 97.595 173.283Z" fill="#74CA7C"/>
<path d="M97.4146 182.862H58.1522C57.5928 182.862 57.134 183.309 57.134 183.88C57.134 184.451 57.5816 184.898 58.1522 184.898H97.4146C97.974 184.898 98.4328 184.451 98.4328 183.88C98.4328 183.32 97.974 182.862 97.4146 182.862Z" fill="#74CA7C"/>
<path d="M39.8142 181.017C39.8477 180.905 39.8701 180.804 39.8701 180.693C39.8701 180.581 39.8477 180.469 39.8142 180.368C39.803 180.357 39.803 180.346 39.803 180.335C39.7582 180.223 39.7023 180.133 39.6351 180.044C39.624 180.032 39.624 180.032 39.624 180.021L34.4993 174.304C34.13 173.89 33.481 173.856 33.0671 174.225C32.6531 174.595 32.6195 175.244 32.9887 175.658L36.5916 179.685L27.4836 179.674C26.3312 179.674 25.3913 178.712 25.3913 177.537V165.274C25.3913 164.715 24.9437 164.256 24.3731 164.256C23.8024 164.256 23.3549 164.703 23.3549 165.274V177.537C23.3549 179.831 25.2011 181.699 27.4836 181.699H36.5915L32.9887 185.727C32.6195 186.141 32.653 186.79 33.067 187.16C33.2572 187.327 33.5034 187.417 33.7384 187.417C34.0181 187.417 34.2978 187.305 34.4992 187.081L39.6239 181.364C39.6351 181.352 39.6351 181.352 39.6351 181.341C39.7022 181.252 39.7694 181.162 39.8029 181.05C39.8141 181.039 39.8142 181.028 39.8142 181.017Z" fill="#74CA7C"/>
<path d="M116.213 139.964L112.186 143.567V133.575C112.186 131.282 110.339 129.413 108.057 129.413H96.6774C96.1179 129.413 95.6592 129.861 95.6592 130.431C95.6592 131.002 96.1067 131.45 96.6774 131.45L108.068 131.438C109.22 131.438 110.16 132.401 110.16 133.575V143.567L106.132 139.964C105.718 139.595 105.069 139.629 104.7 140.043C104.331 140.457 104.365 141.106 104.779 141.475L110.496 146.589C110.507 146.6 110.507 146.6 110.519 146.6C110.608 146.667 110.698 146.734 110.809 146.768C110.821 146.779 110.832 146.779 110.843 146.779C110.955 146.812 111.056 146.835 111.168 146.835C111.279 146.835 111.391 146.812 111.492 146.779C111.503 146.768 111.514 146.768 111.526 146.768C111.637 146.723 111.727 146.667 111.816 146.6C111.828 146.589 111.828 146.589 111.839 146.589L117.556 141.475C117.97 141.106 118.004 140.457 117.635 140.043C117.277 139.629 116.627 139.584 116.213 139.964Z" fill="#74CA7C"/>
</svg>
